<svg width="32" height="32" viewBox="0 0 32 32" fill="none" xmlns="http://www.w3.org/2000/svg">
<path d="M16.0016 0.166626C7.25363 0.166626 0.168215 7.25204 0.168215 16C0.166309 19.3236 1.211 22.5635 3.15408 25.26C5.09717 27.9565 7.83999 29.9727 10.9935 31.0226C11.7851 31.1604 12.0828 30.6854 12.0828 30.269C12.0828 29.8937 12.0622 28.6476 12.0622 27.3208C8.08488 28.0539 7.05572 26.3518 6.73905 25.4604C6.56013 25.0044 5.78905 23.6 5.11613 23.2231C4.56197 22.927 3.7703 22.194 5.09555 22.175C6.34322 22.1544 7.23305 23.3229 7.53072 23.7979C8.95572 26.1919 11.231 25.519 12.1414 25.1041C12.2807 24.075 12.6955 23.383 13.1515 22.9872C9.62863 22.5914 5.94738 21.225 5.94738 15.1687C5.94738 13.446 6.56013 12.0226 7.5703 10.9127C7.41197 10.5169 6.8578 8.89396 7.72863 6.71688C7.72863 6.71688 9.05388 6.30204 12.0828 8.34138C13.3717 7.98364 14.7035 7.80359 16.0411 7.80621C17.387 7.80621 18.7328 7.98354 19.9995 8.33979C23.0284 6.28146 24.3536 6.71846 24.3536 6.71846C25.2245 8.89554 24.6703 10.5185 24.512 10.9143C25.5205 12.0226 26.1349 13.427 26.1349 15.1687C26.1349 21.2455 22.4346 22.5914 18.9101 22.9872C19.4849 23.4812 19.9805 24.4312 19.9805 25.9164C19.9805 28.0333 19.9599 29.7354 19.9599 30.2705C19.9599 30.6854 20.2576 31.1794 21.0492 31.021C24.1919 29.9596 26.9226 27.9395 28.8571 25.2449C30.7916 22.5504 31.8325 19.317 31.8333 16C31.8333 7.25204 24.7479 0.166626 16 0.166626H16.0016Z" fill="black"/>
</svg>
